<svg xmlns="http://www.w3.org/2000/svg" width="1024" height="1024" viewBox="0 0 1024 1024">
  <defs>
    <filter id="sh" x="-30%" y="-30%" width="160%" height="160%">
      <feDropShadow dx="0" dy="16" stdDeviation="24" flood-color="#101433" flood-opacity="0.30"/>
    </filter>
  </defs>
  <!-- Centered within the adaptive-icon safe zone -->
  <g transform="translate(512 528) scale(0.80) translate(-512 -512)">
    <g filter="url(#sh)">
      <path fill="#FFFFFF" d="
        M300 232
        h424
        a40 40 0 0 1 40 40
        v452
        l-42 34 -42 -34 -42 34 -42 -34 -42 34 -42 -34 -42 34 -42 -34 -42 34 -42 -34 -42 34 -42 -34
        v-486
        a40 40 0 0 1 40 -40 z"/>
    </g>
    <rect x="360" y="316" width="304" height="46" rx="23" fill="#2E45E0"/>
    <g fill="#C7CEF6">
      <rect x="360" y="410" width="210" height="30" rx="15"/>
      <rect x="606" y="410" width="58" height="30" rx="15"/>
      <rect x="360" y="470" width="180" height="30" rx="15"/>
      <rect x="606" y="470" width="58" height="30" rx="15"/>
    </g>
    <rect x="360" y="536" width="304" height="6" rx="3" fill="#8E9CF0"/>
    <rect x="360" y="566" width="120" height="40" rx="20" fill="#2E45E0"/>
    <rect x="556" y="566" width="108" height="40" rx="20" fill="#2E45E0"/>
    <circle cx="700" cy="700" r="92" fill="#00C48C"/>
    <text x="700" y="734" font-family="Arial, Helvetica, sans-serif" font-size="86" font-weight="700" fill="#FFFFFF" text-anchor="middle">Rs</text>
  </g>
</svg>
